<svg width="1720" height="844" viewBox="0 0 1720 844" fill="none" xmlns="http://www.w3.org/2000/svg" style="font-family: 'Inter', 'Roboto', sans-serif;">

  <!-- Screen 1: AR Camera Screen -->
  <g transform="translate(0, 0)">
    <rect width="390" height="844" fill="#2D2D2D"/>

    <!-- Top info bar -->
    <rect x="20" y="20" width="350" height="54" rx="12" fill="#000000" fill-opacity="0.8"/>
    <text x="40" y="53" fill="#FFFFFF" font-size="16" font-weight="bold">Area: 14.5 m2</text>
    <text x="300" y="52" fill="#4CAF50" font-size="14">3 Points</text>

    <!-- Test mode indicator (orange badge) -->
    <rect x="20" y="85" width="130" height="28" rx="8" fill="#FF9800" fill-opacity="0.9"/>
    <text x="35" y="104" fill="#FFFFFF" font-size="12" font-weight="bold">Test Image Mode</text>

    <!-- Undo/Clear buttons on right -->
    <circle cx="350" cy="100" r="22" fill="#000000" fill-opacity="0.7"/>
    <text x="350" y="105" fill="#FFFFFF" font-size="14" text-anchor="middle">↩</text>
    <circle cx="350" cy="155" r="22" fill="#000000" fill-opacity="0.7"/>
    <text x="350" y="160" fill="#FFFFFF" font-size="12" text-anchor="middle">✕</text>

    <!-- Polygon points visualization -->
    <circle cx="120" cy="350" r="8" fill="#4CAF50"/>
    <text x="120" y="354" fill="#FFFFFF" font-size="10" text-anchor="middle">1</text>
    <circle cx="280" cy="320" r="8" fill="#4CAF50"/>
    <text x="280" y="324" fill="#FFFFFF" font-size="10" text-anchor="middle">2</text>
    <circle cx="250" cy="480" r="8" fill="#4CAF50"/>
    <text x="250" y="484" fill="#FFFFFF" font-size="10" text-anchor="middle">3</text>
    <!-- Polygon fill -->
    <polygon points="120,350 280,320 250,480" fill="#4CAF50" fill-opacity="0.2" stroke="#4CAF50" stroke-width="2"/>

    <!-- Crosshair in center -->
    <circle cx="195" cy="422" r="30" stroke="#FFFFFF" stroke-width="2" stroke-dasharray="4 4" fill="none"/>
    <text x="195" y="427" fill="#FFFFFF" fill-opacity="0.5" font-size="20" text-anchor="middle">+</text>

    <!-- Instructions text -->
    <text x="195" y="680" fill="#FFFFFF" font-size="12" text-anchor="middle">Tap to continue</text>
    <text x="195" y="698" fill="#FFFFFF" fill-opacity="0.6" font-size="10" text-anchor="middle">Tap to switch to camera</text>

    <!-- Bottom buttons -->
    <!-- Test/Camera toggle button -->
    <circle cx="120" cy="760" r="25" fill="#FF9800"/>
    <text x="120" y="765" fill="#FFFFFF" font-size="16" text-anchor="middle">cam</text>

    <!-- Main capture button -->
    <circle cx="195" cy="760" r="40" fill="#FFFFFF" stroke="#9E9E9E" stroke-width="4"/>
    <text x="195" y="767" fill="#1B3F22" font-size="24" text-anchor="middle">✓</text>
  </g>

  <!-- Screen 2: Review & Vision -->
  <g transform="translate(430, 0)">
    <rect width="390" height="844" fill="#F8FAF8"/>

    <!-- Back arrow -->
    <path d="M35 55 L25 45 L35 35" stroke="#1B3F22" stroke-width="2" stroke-linecap="round" fill="none"/>
    <text x="60" y="51" fill="#1B3F22" font-size="18" font-weight="bold">Review &amp; Vision</text>

    <!-- Captured image preview -->
    <rect x="20" y="80" width="350" height="280" rx="16" fill="#2D2D2D"/>
    <text x="195" y="225" fill="#FFFFFF" fill-opacity="0.5" font-size="16" text-anchor="middle">[Captured Yard Image]</text>

    <!-- Points marked badge (top right of image) -->
    <rect x="260" y="95" width="95" height="28" rx="14" fill="#000000" fill-opacity="0.7"/>
    <circle cx="278" cy="109" r="6" fill="#4CAF50"/>
    <text x="290" y="114" fill="#FFFFFF" font-size="11">3 points marked</text>

    <!-- Area info card -->
    <rect x="20" y="375" width="350" height="70" rx="12" fill="#4CAF50" fill-opacity="0.1" stroke="#4CAF50" stroke-opacity="0.3" stroke-width="1"/>
    <text x="70" y="405" fill="#000000" fill-opacity="0.5" font-size="12">Estimated Area</text>
    <text x="70" y="430" fill="#1B3F22" font-size="22" font-weight="bold">14.5 m2</text>
    <rect x="35" y="395" width="24" height="24" rx="4" fill="none" stroke="#4CAF50" stroke-width="2"/>

    <!-- Vision prompt section -->
    <text x="20" y="480" fill="#1B3F22" font-size="18" font-weight="bold">What is your vision?</text>
    <rect x="20" y="495" width="350" height="100" rx="12" fill="#FFFFFF" stroke="#E0E0E0" stroke-width="1"/>
    <text x="35" y="530" fill="#9E9E9E" font-size="14">e.g., A modern zen garden with</text>
    <text x="35" y="550" fill="#9E9E9E" font-size="14">minimalist design...</text>

    <!-- Creative mode toggle -->
    <rect x="20" y="615" width="350" height="70" rx="12" fill="#F5F5F5" stroke="#E0E0E0" stroke-width="1"/>
    <rect x="32" y="635" width="18" height="18" rx="4" fill="#FFFFFF" stroke="#1B3F22" stroke-width="2"/>
    <text x="60" y="640" fill="#333333" font-size="13" font-weight="bold">Enable Creative Mode</text>
    <text x="60" y="658" fill="#757575" font-size="11">AI will strictly use only selected products</text>
    <text x="340" y="650" fill="#9E9E9E" font-size="18">🔒</text>

    <!-- Next button -->
    <rect x="20" y="760" width="350" height="56" rx="28" fill="#1B3F22"/>
    <text x="165" y="794" fill="#FFFFFF" font-size="16" font-weight="bold">Next: Choose Products</text>
    <text x="330" y="794" fill="#FFFFFF" font-size="16">→</text>
  </g>

  <!-- Screen 3: Select Products -->
  <g transform="translate(860, 0)">
    <rect width="390" height="844" fill="#F8FAF8"/>

    <!-- Header -->
    <path d="M35 55 L25 45 L35 35" stroke="#1B3F22" stroke-width="2" stroke-linecap="round" fill="none"/>
    <text x="60" y="51" fill="#1B3F22" font-size="18" font-weight="bold">Select Products</text>

    <!-- Search bar -->
    <rect x="20" y="80" width="350" height="48" rx="12" fill="#FFFFFF" stroke="#E0E0E0" stroke-width="1"/>
    <circle cx="45" cy="104" r="8" stroke="#9E9E9E" stroke-width="2" fill="none"/>
    <line x1="51" y1="110" x2="57" y2="116" stroke="#9E9E9E" stroke-width="2" stroke-linecap="round"/>
    <text x="70" y="109" fill="#9E9E9E" font-size="14">Search inventory...</text>

    <!-- Product count header with selected badge -->
    <text x="20" y="160" fill="#1B3F22" font-size="16" font-weight="bold">Available Inventory (8)</text>
    <rect x="280" y="145" width="90" height="24" rx="12" fill="#4CAF50" fill-opacity="0.2"/>
    <text x="305" y="162" fill="#4CAF50" font-size="12" font-weight="bold">2 selected</text>

    <!-- Product 1 - Selected with category tag -->
    <rect x="20" y="180" width="350" height="100" rx="12" fill="#4CAF50" fill-opacity="0.05" stroke="#4CAF50" stroke-width="2"/>
    <rect x="32" y="193" width="70" height="70" rx="8" fill="#E8F5E9"/>
    <text x="115" y="213" fill="#333333" font-size="15" font-weight="bold">Shaped Olive Tree</text>
    <!-- Category tag -->
    <rect x="115" y="220" width="45" height="18" rx="4" fill="#1B3F22" fill-opacity="0.1"/>
    <text x="122" y="233" fill="#1B3F22" font-size="9">Trees</text>
    <text x="115" y="258" fill="#9E9E9E" font-size="11">Mediterranean olive tree with...</text>
    <circle cx="340" cy="230" r="14" fill="#4CAF50"/>
    <path d="M333 230 L338 235 L347 224" stroke="#FFFFFF" stroke-width="2" stroke-linecap="round" fill="none"/>

    <!-- Product 2 - Selected -->
    <rect x="20" y="295" width="350" height="100" rx="12" fill="#4CAF50" fill-opacity="0.05" stroke="#4CAF50" stroke-width="2"/>
    <rect x="32" y="308" width="70" height="70" rx="8" fill="#E8F5E9"/>
    <text x="115" y="328" fill="#333333" font-size="15" font-weight="bold">Designer Lounge Sofa</text>
    <rect x="115" y="335" width="60" height="18" rx="4" fill="#1B3F22" fill-opacity="0.1"/>
    <text x="122" y="348" fill="#1B3F22" font-size="9">Furniture</text>
    <text x="115" y="373" fill="#9E9E9E" font-size="11">Premium comfort with weather...</text>
    <circle cx="340" cy="345" r="14" fill="#4CAF50"/>
    <path d="M333 345 L338 350 L347 339" stroke="#FFFFFF" stroke-width="2" stroke-linecap="round" fill="none"/>

    <!-- Product 3 - Not selected -->
    <rect x="20" y="410" width="350" height="100" rx="12" fill="#FFFFFF" stroke="#E0E0E0" stroke-width="1"/>
    <rect x="32" y="423" width="70" height="70" rx="8" fill="#F5F5F5"/>
    <text x="115" y="443" fill="#333333" font-size="15" font-weight="bold">Premium Garden Tile</text>
    <rect x="115" y="450" width="50" height="18" rx="4" fill="#1B3F22" fill-opacity="0.1"/>
    <text x="122" y="463" fill="#1B3F22" font-size="9">Flooring</text>
    <text x="115" y="488" fill="#9E9E9E" font-size="11">High-quality outdoor surface...</text>
    <circle cx="340" cy="460" r="14" stroke="#BDBDBD" stroke-width="2" fill="none"/>

    <!-- Generate button with count -->
    <rect x="20" y="760" width="350" height="56" rx="28" fill="#1B3F22"/>
    <text x="195" y="794" fill="#FFFFFF" font-size="16" font-weight="bold" text-anchor="middle">Generate 3 Variations (2)</text>
  </g>

  <!-- Screen 4: AI Designs Result -->
  <g transform="translate(1290, 0)">
    <rect width="390" height="844" fill="#111111"/>

    <!-- Header with X close and download icon -->
    <text x="30" y="50" fill="#FFFFFF" font-size="24">✕</text>
    <text x="80" y="51" fill="#FFFFFF" font-size="18" font-weight="bold">Your AI Designs</text>
    <text x="350" y="50" fill="#FFFFFF" font-size="20">↓</text>

    <!-- Image area -->
    <rect x="0" y="80" width="390" height="420" fill="#222222"/>
    <text x="195" y="290" fill="#FFFFFF" fill-opacity="0.5" font-size="16" text-anchor="middle">[AI Generated Render 1/3]</text>

    <!-- Perspective label (top left of image) -->
    <rect x="16" y="96" width="130" height="28" rx="14" fill="#000000" fill-opacity="0.7"/>
    <text x="30" y="115" fill="#FFFFFF" font-size="12">Original Perspective</text>

    <!-- Save single image button (top right) -->
    <circle cx="355" cy="110" r="18" fill="#000000" fill-opacity="0.7"/>
    <text x="355" y="115" fill="#FFFFFF" font-size="14" text-anchor="middle">↓</text>

    <!-- Page indicator dots -->
    <rect x="171" y="480" width="24" height="8" rx="4" fill="#FFFFFF"/>
    <circle cx="207" cy="484" r="4" fill="#FFFFFF" fill-opacity="0.4"/>
    <circle cx="223" cy="484" r="4" fill="#FFFFFF" fill-opacity="0.4"/>

    <!-- Bottom panel -->
    <path d="M0 520 Q0 500 24 500 L366 500 Q390 500 390 520 L390 844 L0 844 Z" fill="#FFFFFF"/>

    <!-- Header with product count -->
    <text x="24" y="545" fill="#1B3F22" font-size="20" font-weight="bold">Estimated Quantities</text>
    <text x="320" y="545" fill="#757575" font-size="12">2 products</text>

    <!-- Summary box -->
    <rect x="24" y="560" width="342" height="100" rx="12" fill="#F5F5F5"/>
    <text x="36" y="585" fill="#333333" font-size="13">- Shaped Olive Tree: 1 unit</text>
    <text x="36" y="608" fill="#333333" font-size="13">- Designer Lounge Sofa: 1 unit</text>
    <text x="36" y="631" fill="#333333" font-size="13">- Accent Lighting: 4 units</text>

    <!-- Bottom buttons row -->
    <!-- Save All button (outline) -->
    <rect x="24" y="760" width="110" height="50" rx="25" fill="#FFFFFF" stroke="#1B3F22" stroke-width="2"/>
    <text x="50" y="790" fill="#1B3F22" font-size="14">↓</text>
    <text x="65" y="790" fill="#1B3F22" font-size="13" font-weight="bold">Save All</text>

    <!-- Add to Cart button (filled) -->
    <rect x="146" y="760" width="220" height="50" rx="25" fill="#1B3F22"/>
    <text x="185" y="790" fill="#FFFFFF" font-size="16">🛒</text>
    <text x="210" y="791" fill="#FFFFFF" font-size="15" font-weight="bold">Add to Cart</text>

    <defs>
      <linearGradient id="fadeGradient" x1="0" y1="0" x2="0" y2="1">
        <stop offset="0%" stop-color="#FFFFFF" stop-opacity="0" />
        <stop offset="100%" stop-color="#FFFFFF" stop-opacity="1" />
      </linearGradient>
    </defs>
  </g>
</svg>
